<svg id="Layer_1" data-name="Layer 1" xmlns="http://www.w3.org/2000/svg" viewBox="0 0 468.01 63.53"><defs><style>.cls-1{fill:#fff;}</style></defs><title>ns-logo-txt</title><g id="layer2"><g id="layer1"><g id="flowRoot10"><path id="path4768" class="cls-1" d="M.6,4.1H9L28.94,42.69l.5-38.58h6.05l-.6,46.12h-8.4L6.55,11.64l-.5,38.58H0Z"/><path id="path4772" class="cls-1" d="M106.13,21a7.08,7.08,0,0,0-2.09-.8,10.14,10.14,0,0,0-2.47-.28A9.17,9.17,0,0,0,94.13,23q-2.6,3.12-2.68,9l-.24,18.23H85.5l.45-34.6h5.71L91.59,21a11.76,11.76,0,0,1,4.72-4.66,14.68,14.68,0,0,1,7-1.54,10.06,10.06,0,0,1,1.3.09q.71.06,1.57.22Z"/><path id="path4774" class="cls-1" d="M118,5.85l-.13,9.82h11.7l-.06,4.42h-11.7l-.24,18.78q-.05,4.23,1.07,5.44t4.71,1.21h5.84l-.06,4.76h-5.84q-6.58,0-9-2.44t-2.38-9l.24-18.78h-4.17l.06-4.42h4.17l.13-9.82Z"/><path id="path4776" class="cls-1" d="M165.62,29.41l-.27,20.88h-5.68l.27-20.7q.06-4.91-1.82-7.35a6.76,6.76,0,0,0-5.71-2.44,9.41,9.41,0,0,0-7.29,2.93,11.61,11.61,0,0,0-2.76,8l-.25,19.55h-5.71L137,2.21h5.71l-.24,18.84a14.19,14.19,0,0,1,4.85-4.66,13,13,0,0,1,6.41-1.54q6,0,9,3.71T165.62,29.41Z"/><path id="path4778" class="cls-1" d="M217.47,19.17l-32,11.32,31.72,11.29-.07,5.62L177.71,33l.07-5.13,39.77-14.35Z"/><path id="path4780" class="cls-1" d="M240.42,4.2h5.25l-16.73,52h-5.25Z"/><path id="path4782" class="cls-1" d="M273.57,16.76l-.07,5.38a21.91,21.91,0,0,0-5-1.86,23,23,0,0,0-5.36-.62,12.54,12.54,0,0,0-6.38,1.29,4.34,4.34,0,0,0-2.15,3.89A3.65,3.65,0,0,0,256.11,28q1.5,1.11,6.06,2.13l1.94.43q6,1.3,8.54,3.68a8.37,8.37,0,0,1,2.48,6.58,9.1,9.1,0,0,1-3.93,7.63q-3.83,2.81-10.5,2.81a32,32,0,0,1-5.8-.56,46.4,46.4,0,0,1-6.31-1.61l.08-5.87a31,31,0,0,0,6.17,2.47,23.63,23.63,0,0,0,6,.81,11.73,11.73,0,0,0,6.19-1.36,4.45,4.45,0,0,0,2.21-3.89,4.19,4.19,0,0,0-1.53-3.55q-1.53-1.24-6.79-2.38l-2-.46q-5.27-1.11-7.58-3.4a8.4,8.4,0,0,1-2.26-6.33,9.07,9.07,0,0,1,3.56-7.54q3.49-2.66,9.85-2.65a36,36,0,0,1,5.92.47A25,25,0,0,1,273.57,16.76Z"/><path id="path4784" class="cls-1" d="M309.39,17.08l-.07,5.31a21.17,21.17,0,0,0-4.82-2,17.79,17.79,0,0,0-4.87-.68A10.89,10.89,0,0,0,291,23.25q-3.1,3.49-3.18,9.82t2.93,9.86q3,3.49,8.54,3.49a18.77,18.77,0,0,0,4.89-.65,22.89,22.89,0,0,0,4.87-2L309,49a23.53,23.53,0,0,1-5,1.67,25.25,25.25,0,0,1-5.41.55q-7.81,0-12.35-4.92t-4.43-13.25q.11-8.46,4.8-13.31t12.82-4.84a23.45,23.45,0,0,1,5.12.56A22.44,22.44,0,0,1,309.39,17.08Z"/><path id="path4786" class="cls-1" d="M339.32,21.08a7.08,7.08,0,0,0-2.09-.8,10.14,10.14,0,0,0-2.47-.28,9.17,9.17,0,0,0-7.45,3.15q-2.6,3.12-2.68,9l-.24,18.23h-5.71l.45-34.6h5.71l-.07,5.38a11.76,11.76,0,0,1,4.72-4.66,14.68,14.68,0,0,1,7-1.54,10.06,10.06,0,0,1,1.3.09q.71.06,1.57.22Z"/><path id="path4788" class="cls-1" d="M345.41,15.77h5.68l-.45,34.6H345Zm.17-13.47h5.68l-.09,7.2h-5.68Z"/><path id="path4790" class="cls-1" d="M368.06,45.18l-.24,18.35h-5.71l.62-47.76h5.71L368.37,21a12,12,0,0,1,4.57-4.57,13.48,13.48,0,0,1,6.57-1.51,12.21,12.21,0,0,1,10.16,5q3.89,5,3.78,13.16t-4.12,13.16a12.55,12.55,0,0,1-10.29,5,13.49,13.49,0,0,1-6.53-1.49A11.75,11.75,0,0,1,368.06,45.18Zm19.49-12.07q.08-6.27-2.47-9.82a8.1,8.1,0,0,0-7-3.59,8.41,8.41,0,0,0-7.15,3.58q-2.61,3.55-2.69,9.82T370.65,43a8.21,8.21,0,0,0,7.06,3.56A8.36,8.36,0,0,0,384.82,43Q387.47,39.39,387.55,33.11Z"/><path id="path4792" class="cls-1" d="M408.83,6l-.13,9.82h11.7l-.06,4.42h-11.7L408.41,39q-.05,4.23,1.07,5.44t4.71,1.21H420L420,50.4h-5.84q-6.58,0-9-2.44t-2.38-9l.24-18.78h-4.17l.06-4.42H403L403.12,6Z"/><path id="path4794" class="cls-1" d="M428.61,19.26l.07-5.62L468.08,28,468,33.15,428.24,47.5l.07-5.62,31.95-11.26Z"/><path id="path4796" class="cls-1" d="M43.65,19.25a29.93,29.93,0,0,0-3,6.65,24,24,0,0,0-.17,13.35A29.62,29.62,0,0,0,43.3,45.9H41a29.81,29.81,0,0,1-3.2-6.75A20.54,20.54,0,0,1,37.94,26a30.26,30.26,0,0,1,3.37-6.75Z"/><path id="path4798" class="cls-1" d="M77,19.27h2.34A29.71,29.71,0,0,1,82.53,26a20.61,20.61,0,0,1,1,6.56,21,21,0,0,1-1.18,6.59A30.19,30.19,0,0,1,79,45.91H76.67a29.91,29.91,0,0,0,3-6.65,24,24,0,0,0,1.05-6.69,23.44,23.44,0,0,0-.88-6.66A29.48,29.48,0,0,0,77,19.27Z"/></g></g><polygon class="cls-1" points="65.47 38.1 53.79 32.57 54.48 44.77 65.47 38.1"/><path class="cls-1" d="M60.57,14.81c-9.45,0-17.11,8.18-17.11,18.28s7.66,18.28,17.11,18.28,17.11-8.18,17.11-18.28S70,14.81,60.57,14.81Zm-6.9,31.5-.87-15.2L67.36,38ZM54.49,28,68,19.72l.69,15.4Z"/><polygon class="cls-1" points="65.47 38.1 53.79 32.57 54.48 44.77 65.47 38.1"/></g></svg>